<svg t="1589984019159" class="icon" viewBox="0 0 1024 1024" version="1.1" xmlns="http://www.w3.org/2000/svg" p-id="11155" width="32" height="32"><path d="M807.703 217.66m-76.821 0a76.821 76.821 0 1 0 153.642 0 76.821 76.821 0 1 0-153.642 0Z" p-id="11156"></path><path d="M640.093 141.69m-76.821 0a76.821 76.821 0 1 0 153.642 0 76.821 76.821 0 1 0-153.642 0Z" p-id="11157"></path><path d="M472.482 141.69m-76.821 0a76.821 76.821 0 1 0 153.642 0 76.821 76.821 0 1 0-153.642 0Z" p-id="11158"></path><path d="M259.562 214.594m-120.087 0a120.087 120.087 0 1 0 240.174 0 120.087 120.087 0 1 0-240.174 0Z" p-id="11159"></path><path d="M587.799 286.646c-106.996 0-224.162-7.95-224.162 144.104 0 96.069 69.124 153.479 80.058 208.15 16.012 80.058-31.319 177.536 0 240.173 16.012 32.023 46.553 80.058 112.081 80.058 123.801 0 224.162-150.541 224.162-336.243s-68.337-336.242-192.139-336.242z" p-id="11160"></path></svg>